<mxfile host="65bd71144e">
    <diagram id="vyEY21Yt6QbS2T0CRkBT" name="Page-1">
        <mxGraphModel dx="1133" dy="825" grid="1" gridSize="10" guides="1" tooltips="1" connect="1" arrows="1" fold="1" page="1" pageScale="1" pageWidth="850" pageHeight="1100" math="0" shadow="0">
            <root>
                <mxCell id="0"/>
                <mxCell id="1" parent="0"/>
                <mxCell id="4" value="" style="edgeStyle=none;html=1;fontSize=13;" parent="1" source="2" target="3" edge="1">
                    <mxGeometry relative="1" as="geometry"/>
                </mxCell>
                <mxCell id="2" value="Start" style="ellipse;fontSize=13;" parent="1" vertex="1">
                    <mxGeometry x="410.36" y="80" width="95.29" height="90" as="geometry"/>
                </mxCell>
                <mxCell id="6" value="" style="edgeStyle=none;html=1;fontSize=13;" parent="1" source="3" target="5" edge="1">
                    <mxGeometry relative="1" as="geometry"/>
                </mxCell>
                <mxCell id="3" value="Login" style="whiteSpace=wrap;html=1;fillColor=none;fontSize=13;" parent="1" vertex="1">
                    <mxGeometry x="338" y="205" width="240" height="60" as="geometry"/>
                </mxCell>
                <mxCell id="7" style="edgeStyle=orthogonalEdgeStyle;html=1;entryX=0;entryY=0.5;entryDx=0;entryDy=0;fontSize=13;" parent="1" source="5" target="3" edge="1">
                    <mxGeometry relative="1" as="geometry">
                        <Array as="points">
                            <mxPoint x="290" y="375"/>
                            <mxPoint x="290" y="235"/>
                        </Array>
                    </mxGeometry>
                </mxCell>
                <mxCell id="17" value="No" style="edgeLabel;html=1;align=center;verticalAlign=middle;resizable=0;points=[];fontSize=13;" parent="7" vertex="1" connectable="0">
                    <mxGeometry x="0.2276" y="-2" relative="1" as="geometry">
                        <mxPoint as="offset"/>
                    </mxGeometry>
                </mxCell>
                <mxCell id="9" value="" style="edgeStyle=orthogonalEdgeStyle;html=1;fontSize=13;" parent="1" source="5" target="8" edge="1">
                    <mxGeometry relative="1" as="geometry"/>
                </mxCell>
                <mxCell id="18" value="Yes" style="edgeLabel;html=1;align=center;verticalAlign=middle;resizable=0;points=[];fontSize=13;" parent="9" vertex="1" connectable="0">
                    <mxGeometry x="-0.2667" y="2" relative="1" as="geometry">
                        <mxPoint as="offset"/>
                    </mxGeometry>
                </mxCell>
                <mxCell id="5" value="Validate" style="rhombus;whiteSpace=wrap;html=1;fillColor=none;fontSize=13;" parent="1" vertex="1">
                    <mxGeometry x="402" y="310" width="112" height="95" as="geometry"/>
                </mxCell>
                <mxCell id="11" value="" style="edgeStyle=orthogonalEdgeStyle;html=1;fontSize=13;" parent="1" source="8" target="10" edge="1">
                    <mxGeometry relative="1" as="geometry"/>
                </mxCell>
                <mxCell id="8" value="Enter Stock Symbol" style="whiteSpace=wrap;html=1;fillColor=none;spacing=4;fontSize=13;" parent="1" vertex="1">
                    <mxGeometry x="358" y="460" width="200" height="60" as="geometry"/>
                </mxCell>
                <mxCell id="12" style="edgeStyle=orthogonalEdgeStyle;html=1;exitX=0;exitY=0.5;exitDx=0;exitDy=0;entryX=0;entryY=0.5;entryDx=0;entryDy=0;fontSize=13;" parent="1" edge="1">
                    <mxGeometry relative="1" as="geometry">
                        <Array as="points">
                            <mxPoint x="408" y="628"/>
                            <mxPoint x="290" y="628"/>
                            <mxPoint x="290" y="488"/>
                        </Array>
                        <mxPoint x="408" y="626" as="sourcePoint"/>
                        <mxPoint x="358" y="488" as="targetPoint"/>
                    </mxGeometry>
                </mxCell>
                <mxCell id="19" value="No" style="edgeLabel;html=1;align=center;verticalAlign=middle;resizable=0;points=[];fontSize=13;" parent="12" vertex="1" connectable="0">
                    <mxGeometry x="-0.0552" y="1" relative="1" as="geometry">
                        <mxPoint as="offset"/>
                    </mxGeometry>
                </mxCell>
                <mxCell id="14" value="" style="edgeStyle=orthogonalEdgeStyle;html=1;fontSize=13;" parent="1" source="10" target="13" edge="1">
                    <mxGeometry relative="1" as="geometry"/>
                </mxCell>
                <mxCell id="20" value="Yes" style="edgeLabel;html=1;align=center;verticalAlign=middle;resizable=0;points=[];fontSize=13;" parent="14" vertex="1" connectable="0">
                    <mxGeometry x="-0.28" y="2" relative="1" as="geometry">
                        <mxPoint as="offset"/>
                    </mxGeometry>
                </mxCell>
                <mxCell id="10" value="Validate Symbol" style="rhombus;whiteSpace=wrap;html=1;fillColor=none;spacing=10;fontSize=13;" parent="1" vertex="1">
                    <mxGeometry x="408" y="578" width="100" height="100" as="geometry"/>
                </mxCell>
                <mxCell id="16" value="" style="edgeStyle=orthogonalEdgeStyle;html=1;fontSize=13;" parent="1" source="13" target="15" edge="1">
                    <mxGeometry relative="1" as="geometry"/>
                </mxCell>
                <mxCell id="13" value="Add / Remove&lt;br style=&quot;font-size: 13px;&quot;&gt;&amp;nbsp;to Watchlist" style="whiteSpace=wrap;html=1;fillColor=none;spacing=10;fontSize=13;" parent="1" vertex="1">
                    <mxGeometry x="398" y="750" width="120" height="60" as="geometry"/>
                </mxCell>
                <mxCell id="15" value="End" style="ellipse;html=1;shape=endState;fontSize=13;" parent="1" vertex="1">
                    <mxGeometry x="408" y="861" width="100" height="100" as="geometry"/>
                </mxCell>
            </root>
        </mxGraphModel>
    </diagram>
</mxfile>